<svg width="22" height="31" xmlns="http://www.w3.org/2000/svg" viewBox="0 0 24 34">
    <defs>
        <style>
            .cls-1{fill:#E0E0E0;}
            .cls-1,.cls-2,.cls-3{stroke:#212121;stroke-miterlimit:10;}
            .cls-2,.cls-3{fill:none;}
            .cls-2,.cls-3{stroke-width:1.1;}
        </style>
    </defs>
    <g id="Layer_2" data-name="Layer 2">
        <g id="Layer_1-2" data-name="Layer 1">
            <path class="cls-1" d="M21.56,6.49h0A11,11,0,0,0,15,1l.19-.25L15,1A11.67,11.67,0,0,0,11.62.5a11.1,11.1,0,0,0-8.52,4h0A11.15,11.15,0,0,0,.5,11.7,12.74,12.74,0,0,0,1.59,17c1.2,2.73,3.49,5.12,5.06,7.23A31.26,31.26,0,0,1,9.17,28a20,20,0,0,1,1.38,3.51c.28.8.55,1.05,1.11,1.05s.88-.41,1.1-1.05A19.42,19.42,0,0,1,14.09,28a37.75,37.75,0,0,1,3.75-5.29,32.18,32.18,0,0,0,3.7-5.34,13,13,0,0,0,1.27-5.65A11.32,11.32,0,0,0,21.56,6.49Z"/>
            <line class="cls-2" x1="6.5" y1="6.8" x2="6.5" y2="19.5"/>
            <line class="cls-2" x1="6" y1="18" x2="17" y2="18"/>
            <path class="cls-3" d="M6,7.1S18,8,17.5,19.5"/>
        </g>
    </g>
</svg>
